/* XPM */
static char *_f8f6a0c10d54e2480e6a9dd8bb8cde1jLcsGHemnINJnRkG[] = {
/* columns rows colors chars-per-pixel */
"42 42 239 2 ",
"   c #010101",
".  c #040603",
"X  c #09090A",
"o  c #160908",
"O  c #051709",
"+  c #080D12",
"@  c #09131A",
"#  c #131413",
"$  c #1A1C1F",
"%  c #350808",
"&  c #062A03",
"*  c #15290A",
"=  c #043402",
"-  c #0A3605",
";  c #0D3C04",
":  c #153B0A",
">  c #1D3216",
",  c #2A2E12",
"<  c #01182A",
"1  c #0C2728",
"2  c #012038",
"3  c #373530",
"4  c #590D0D",
"5  c #610E0E",
"6  c #641111",
"7  c #741616",
"8  c #45320E",
"9  c #4E3412",
"0  c #79241A",
"q  c #54332E",
"w  c #693625",
"e  c #7E3A31",
"r  c #0E4404",
"t  c #144504",
"y  c #144B04",
"u  c #194708",
"i  c #1C4C0A",
"p  c #185705",
"a  c #1C5404",
"s  c #1D5B05",
"d  c #1D540C",
"f  c #1B4915",
"g  c #1E5414",
"h  c #25490C",
"j  c #225B04",
"k  c #22540C",
"l  c #235B0C",
"z  c #295D0A",
"x  c #254917",
"c  c #374911",
"v  c #245513",
"b  c #255C12",
"n  c #2A5C14",
"m  c #29581A",
"M  c #315C1A",
"N  c #246304",
"B  c #266907",
"V  c #25630C",
"C  c #2A630C",
"Z  c #2B6B0C",
"A  c #31650F",
"S  c #326C0E",
"D  c #2D770A",
"F  c #33730D",
"G  c #317A0F",
"H  c #256211",
"J  c #2B6413",
"K  c #2D6B13",
"L  c #24601D",
"P  c #2C641B",
"I  c #2D6A19",
"U  c #346815",
"Y  c #326C14",
"T  c #33651B",
"R  c #346C1A",
"E  c #396E1D",
"W  c #2E7313",
"Q  c #347314",
"!  c #387816",
"~  c #35721C",
"^  c #3B741C",
"/  c #3C7B1C",
"(  c #355329",
")  c #3D4639",
"_  c #346B21",
"`  c #3A6E23",
"'  c #3A6829",
"]  c #367322",
"[  c #3C7323",
"{  c #3D7A22",
"}  c #3D782B",
"|  c #397531",
" . c #424113",
".. c #405513",
"X. c #456D1B",
"o. c #427C1C",
"O. c #4C533B",
"+. c #75472A",
"@. c #44672B",
"#. c #417425",
"$. c #437C23",
"%. c #43742B",
"&. c #447C2B",
"*. c #497D2D",
"=. c #476A35",
"-. c #457933",
";. c #4B7E33",
":. c #52783B",
">. c #022C4E",
",. c #07334B",
"<. c #012F53",
"1. c #013259",
"2. c #023964",
"3. c #1D625C",
"4. c #0B4C78",
"5. c #256064",
"6. c #246C6A",
"7. c #4A5648",
"8. c #555555",
"9. c #6F4B4B",
"0. c #675356",
"q. c #547346",
"w. c #706356",
"e. c #705E60",
"r. c #676768",
"t. c #78686B",
"y. c #79787B",
"u. c #881D1D",
"i. c #8F2F2D",
"p. c #972222",
"a. c #9B2A2A",
"s. c #A92A2A",
"d. c #A13234",
"f. c #BA3434",
"g. c #9B4F36",
"h. c #823F43",
"j. c #945257",
"k. c #A74C50",
"l. c #B86950",
"z. c #9A727B",
"x. c #AD7374",
"c. c #3D851B",
"v. c #3E8125",
"b. c #43821E",
"n. c #48881D",
"m. c #448324",
"M. c #498326",
"N. c #468C24",
"B. c #4C8B23",
"V. c #45822A",
"C. c #4B842B",
"Z. c #4C8B2C",
"A. c #518A27",
"S. c #508C2C",
"D. c #4A9426",
"F. c #54932D",
"G. c #58992C",
"H. c #4D8533",
"J. c #4A8636",
"K. c #4D8A33",
"L. c #518436",
"P. c #538B33",
"I. c #558C3A",
"U. c #5B8E3C",
"Y. c #549333",
"T. c #599434",
"R. c #579836",
"E. c #5C943D",
"W. c #5C9A3D",
"Q. c #648F34",
"!. c #639D3A",
"~. c #5DA238",
"^. c #65A238",
"/. c #488943",
"(. c #5A8945",
"). c #5B9444",
"_. c #5D9B42",
"`. c #5F994D",
"'. c #528A5E",
"]. c #639B44",
"[. c #639847",
"{. c #669851",
"}. c #6BA74A",
"|. c #78B24E",
" X c #6BA354",
".X c #71A459",
"XX c #728A68",
"oX c #82BC55",
"OX c #86B36E",
"+X c #F8845C",
"@X c #F48C64",
"#X c #8EC173",
"$X c #034C85",
"%X c #034E8A",
"&X c #085188",
"*X c #005495",
"=X c #02579B",
"-X c #165F99",
";X c #2C6B89",
":X c #035DA4",
">X c #0A6DA9",
",X c #0166B6",
"<X c #016ABE",
"1X c #2E78B3",
"2X c #6E7786",
"3X c #016DC4",
"4X c #0171CA",
"5X c #0479D6",
"6X c #0078D8",
"7X c #A97D87",
"8X c #6E87A0",
"9X c #1DA7CF",
"0X c #5DAFF0",
"qX c #69B5F1",
"wX c #46C8DD",
"eX c #8D898C",
"rX c #B58D98",
"tX c #9995B0",
"yX c #A899A5",
"uX c #B99DA9",
"iX c #9CB8AF",
"pX c #AAA7B2",
"aX c #C28C94",
"sX c #E3A984",
"dX c #CAA9B5",
"fX c #AFD09F",
"gX c #8FACC3",
"hX c #ABA8C0",
"jX c #B8B7C7",
"kX c #C6BDCF",
"lX c #94CED7",
"zX c #C7C3D3",
"xX c #C9C9D9",
"cX c #D8CAD8",
"vX c #D3D3E3",
"bX c #DBDBEB",
"nX c #E4E0EF",
"mX c #E4E4F4",
"MX c #E8E8F8",
/* pixels */
" XE.P.E.}.}.E.I.[..X.X;.d = v -.{.OX}.B.V a C P i ; ; ; i T m.F.~.B.Z W W B B D c.c.",
";.L.H.P.S.^ &.$.P.|.#X[.H.P b _ *.&.S.Z.Y a a d - = = - - f H { F.m.B B W Z B B W / ",
"v ` C.C.^ z E E M.!.|.oXP.H.L.;.^ ^ J Z.^ C J H r - = & & - y H / Q j s ~ Z K K Z K ",
"= b &.*.E j C U $.A.A.!.T.C.(.q.=.=.( :.=.@.=.@.i r r : ; ; b H U Y j p C V Q Q Z N ",
"= k #.C.$.z a z #.$.S A ^.%.O.e.y.y.0.9.t.y.t.9.m g L P n J &.` J C C a p V Q Q Z N ",
"; n H.E.P.E a y J &.Z.o.Q.w.i.x.zXcXd.p.aXcXrXa.0.@._ I Y { H.` k l K J p V K Z C J ",
"m _ [.E.^ o.a r l &.P.X.i.f.s.a.d.d.6 5 u.d.d.a.f.a.9 d K K P k y a Y { a J b y = = ",
"t i ;.U.$.P.I.P J ^ @.9 f.s.u.j.dXdXi.u.x.dX7X7 s.f.0  .~ l r i k z Y $.z T T i = = ",
"t t #.U.C.&._.P l A ..6 f.s.j.uXbXnXrXrXkXmXzXz.a.f.u.8 J y = m _ Y J R z T T n i i ",
"M i [ E.T.^ I.P C A c 5 s.u.7XvXMXmXxXxXbXMXmXkXi.s.u.8 H y ; | J.] l k u n E E T T ",
"`.M #.[.}.o.C.$.$.o...5 p.e yXbXMXmXxXxXbXMXmXzX9.i.7 8 H s l J.).&.a t ; v T ` *.I.",
"#X(.I.}.oX^.m.C.M.o...5 p.uXbXMXMXmXxXxXbXMXMXmXxXk.7 8 C C Y m._.I.I b b t t k ;.OX",
";..XE.A.!.|.$./ $.Y h 5 p.uXbXMXMXmXxXxXbXMXMXmXxXk.7 9 / m.Z F m.V.V.K.[._ k t k %.",
"i ;.[.!.^.|.M.V.{ ~ m o 6 uXbXMXMXmXxXxXbXMXMXmXxXh.% , ~ m.b.m.m.K.J.b %.#.M u ; : ",
"%.;.[.[.T.F.M.Q ' q.) . 4 yXvXbXMXmXxXxXbXMXmXvXxXq o > =.Z.m.Y.Z.m.~ r z A U U n m ",
"(.L.I.E.T.o.Z.! @.O.$   % yXxXvXbXbXxXxXvXbXvXzX2X$   # ) q.K._.Y./ K y a N o.Z.L.U.",
"*.L.H.U.[.C.S.#.M *       y.tXpXxXxXkXkXzXxXjXeXX       # 7.K._.Y.m.Q V a Z n.F.T.}.",
"*.U.H.L.).V.F * .     . X     8.jXjXtXtXhXjXeX    . X X O a J { m.b.b.V.p F ! F B / ",
"U.*.R P ` *.o.b.>   # 8.8.#   . # # + + + # X     3 8.8.) . . v ! Z.W.m.V Z S B N F ",
"%.E n l P [ n.: +.g.q $ 4.@                       # x _ M i v P V / Y./ Y ^ m.C.C.M.",
"-.%.%.;.H.$.R.* w l.eXeX&X1.>.<             + >.>.>.1 u K J I H s Q Z.~ ~ ~ J.[.[.$.",
"(.{.(.L.H.o.F.: , e.pXgX&X:X:X4.2 2 2 2 2 2 <.:X%X$X5.7.h K J l C Q / ~ ] H } )._.[ ",
"/..X(.[ ^ m.Y a & 3 2X%X=X4X6X<X=X=X=X=X=X=X:X<X%X-XgXeX, i f b / / B ~ R l P ;.[._.",
"a R %.H.).[.U t ; * 1 &X4X6X6X6X6X6X6X6X6X6X3X$X4.8XpXx.e o o x $./ s V ~ [ %.[.#XfX",
"E U ^ *.H.%.i y i XXfXP &X%X%X:X6X6X6X6X6X6X3X4.f 4.0.l.@XsXsX3 h / / Y J $.^ E *.I.",
"P./ n k P _ m P d ' {.Y././.5.:X6X6X6X6X6X6X3X4.| iX8Xj.+X@X@X, h / ! Z s K ~ E R I ",
"Z.^ d i l P d m P ] K.Y.D.B.3.:X6X6X6X6X6X6X3X&X/.OX'.O.w w w c U Q Z B s s K Y K J ",
"o.^ J l l l y d P ] V.m.c.m.3.=X,X,X,X,X,X,X=X,.| K.S.T * : x U Q Q ! B B a C Y Y Y ",
"Y ^ E J a y a l l J { v.{ { 3.%X=X=X=X%X$X$X2.. i [ P.M.Q m.F./ F / Z.Q Y a C Y Q $.",
"a j a a a a K P H R J.E.J.~ 3.:X5X5X6X=X$X$X1.. m i k R Z.M.S Q ! / m.Q / V l C Y $.",
"K &.[ J C $.K.{ H l R &.C.m.3.1XqX0X5X=X$X<.. . ; ; u [ [.!.Z.Z N N j j P.K.[ J z P ",
"Z J R [ &.C.&.} I l P H.! o.3.1XqXqX:X%X>.1.:X*XO : u n C.C._.W.m.S B C &.H.*.P y a ",
"s l T H.].P.&.J.] l H Y.m.S.6.-X1X1X&X$X2 < 1.<.O * ; i C W v._.R.m.Q Z ~ { ~ J J E ",
"p J [ I.}.P.J.I.J.~ I T.T.@.6.>X>X:X1.>.1 * * > : : f n Y Z K { Z.Y.Z.K C Q { $./ Y ",
"C { Z.S.Z.K.E.).).K.{ Z.E.* ;XwX9X3X+ # ( ' =.(.-.` ` J.I.{ I V Q F.T.~ H ~ P.W.V.s ",
"/ T.W.B.F m.W._.U.*.T l C.* eXlX9X,X@ 8.y.y.XX}.W.R.R.).`.).i J { { K P %.*.$.V.P.^ ",
"Q R.G.n.b.B.W.[.E a d l *.n * # + @ r.y.y.XX_.R.~.F.Y.Z.] ] C C.J a K [ k l R [ ` #.",
"&.F.G.n.F / Y / [ P l s U P v u ; ; ' (.{..X}.Y.c.G N.v.V ^ Q ^.b.s s Y y ; - x :.OX",
"H.T.G.c.B Z C E C.C.E C U ~ [ H r t E ^ m.E.W.m.Q c.N.~ s H F.^.B.K V Z l m x M (.OX",
"I.T.S.Q s V E E C.P.&.^ { / v.I y r J a C $.C.$.^ m.m.W s C F.G.Z.{ Q / ! $.#.%.:.(.",
"H.U.C.U l J *.b ^ Z.&.E V.c.c.~ d i l p J ~ E &.C.m.v.Q l K / Z.V.[ $.Z.B.m.&.#.` ' ",
"l E.C.U ` L.H.d R m.Y j ~ D.N.Q v P J.W / I y J  XW.K.{ z a ^ &.P n E ! W.n.! Y J n "
};
