/* XPM */
static char *_7dd99dd53e44b2296cac9e3c187418etV6gsFbFvSGaPAqu[] = {
/* columns rows colors chars-per-pixel */
"42 42 234 2 ",
"   c #020202",
".  c #080B09",
"X  c #091406",
"o  c #020C15",
"O  c #121517",
"+  c #35090A",
"@  c #321911",
"#  c #032A03",
"$  c #043202",
"%  c #0B3C04",
"&  c #0C3808",
"*  c #123A09",
"=  c #162712",
"-  c #393A06",
";  c #2A3214",
":  c #0C2F2E",
">  c #39363A",
",  c #252A26",
"<  c #56160B",
"1  c #5B1D16",
"2  c #4D1714",
"3  c #781B19",
"4  c #6F110E",
"5  c #523210",
"6  c #7D2D1B",
"7  c #51362F",
"8  c #6A3221",
"9  c #0D4201",
"0  c #134303",
"q  c #144B04",
"w  c #1A4C04",
"e  c #1A4C0B",
"r  c #17460B",
"t  c #165203",
"y  c #1A5404",
"u  c #1C5A03",
"i  c #1C540B",
"p  c #1E5A0A",
"a  c #175408",
"s  c #1B4911",
"d  c #1F5613",
"f  c #214B0D",
"g  c #22550B",
"h  c #235C0C",
"j  c #255B08",
"k  c #244D14",
"l  c #235313",
"z  c #245C14",
"x  c #2B5C13",
"c  c #2A581A",
"v  c #345B16",
"b  c #3A4614",
"n  c #1E6006",
"m  c #246305",
"M  c #25620B",
"N  c #2A640D",
"B  c #2C6B0D",
"V  c #266907",
"C  c #33690D",
"Z  c #2C730C",
"A  c #33730D",
"S  c #266313",
"D  c #2C6414",
"F  c #2C6A13",
"G  c #2C641A",
"H  c #2E6C1A",
"J  c #326C15",
"K  c #33641B",
"L  c #336C1A",
"P  c #356918",
"I  c #347315",
"U  c #3A7515",
"Y  c #397A16",
"T  c #35721B",
"R  c #3A741C",
"E  c #3C7B1C",
"W  c #2C7314",
"Q  c #114335",
"!  c #2D5823",
"~  c #3B6D22",
"^  c #386927",
"/  c #3C7322",
"(  c #3E7B23",
")  c #3E7B2A",
"_  c #397327",
"`  c #306827",
"'  c #494D17",
"]  c #674319",
"[  c #56691C",
"{  c #42781B",
"}  c #755229",
"|  c #427525",
" . c #437D24",
".. c #43742B",
"X. c #457C2B",
"o. c #4A7C2F",
"O. c #497B35",
"+. c #537334",
"@. c #6B6E2D",
"#. c #495A20",
"$. c #06304F",
"%. c #083C66",
"&. c #2E3C4A",
"*. c #165753",
"=. c #0D4E4F",
"-. c #03487B",
";. c #0A5175",
":. c #2D4E6A",
">. c #275E5E",
",. c #4A4A4A",
"<. c #5A5B59",
"1. c #574742",
"2. c #69504B",
"3. c #547742",
"4. c #6A6A6A",
"5. c #736F71",
"6. c #8D1E1E",
"7. c #831F1F",
"8. c #921F1F",
"9. c #8A2B1E",
"0. c #882122",
"q. c #9C2726",
"w. c #883224",
"e. c #99322C",
"r. c #AD2B2B",
"t. c #C13535",
"y. c #98442B",
"u. c #974D33",
"i. c #985135",
"p. c #AE5037",
"a. c #B23F41",
"s. c #A24D5A",
"d. c #AD4E4B",
"f. c #B3694D",
"g. c #AA5B61",
"h. c #A0726A",
"j. c #F17C56",
"k. c #C76544",
"l. c #3C851B",
"z. c #1E8A35",
"x. c #3E8323",
"c. c #42831D",
"v. c #4A8C1D",
"b. c #448224",
"n. c #46832B",
"m. c #4B842B",
"M. c #4B8B2A",
"N. c #498825",
"B. c #528B2D",
"V. c #50862C",
"C. c #4B9329",
"Z. c #56952D",
"A. c #4D8333",
"S. c #4D8A33",
"D. c #4A8536",
"F. c #538435",
"G. c #538D34",
"H. c #53853B",
"J. c #548B3A",
"K. c #5B8C3E",
"L. c #549333",
"P. c #5A9334",
"I. c #54933A",
"U. c #5A933C",
"Y. c #5C9A3C",
"T. c #569A34",
"R. c #4F9930",
"E. c #629B3B",
"W. c #5DA137",
"Q. c #66A43C",
"!. c #2AA545",
"~. c #5B8B44",
"^. c #578745",
"/. c #5C9343",
"(. c #5C9846",
"). c #629B42",
"_. c #649B4C",
"`. c #649847",
"'. c #669754",
"]. c #69A649",
"[. c #6BA552",
"{. c #75AA5A",
"}. c #79B455",
"|. c #71AF4B",
" X c #7BAF66",
".X c #669954",
"XX c #86B36A",
"oX c #82BA5D",
"OX c #CD8766",
"+X c #D9876C",
"@X c #F69A75",
"#X c #F18D66",
"$X c #F8A47C",
"%X c #90C477",
"&X c #034C85",
"*X c #064F88",
"=X c #03518F",
"-X c #135592",
";X c #275883",
":X c #025CA5",
">X c #025FAA",
",X c #0369BC",
"<X c #0164B2",
"1X c #1669AB",
"2X c #2973AD",
"3X c #57728C",
"4X c #016CC2",
"5X c #0071CA",
"6X c #0074D0",
"7X c #A9778C",
"8X c #A8778C",
"9X c #138BBC",
"0X c #388CD0",
"qX c #51A6EB",
"wX c #63A9DF",
"eX c #B5828D",
"rX c #B78892",
"tX c #B3969D",
"yX c #B0A5A5",
"uX c #A28E9B",
"iX c #F1AC87",
"pX c #F8B890",
"aX c #F8B48C",
"sX c #D2B3AB",
"dX c #EDC5AF",
"fX c #BBB8D2",
"gX c #AFA9CC",
"hX c #B7DAF6",
"jX c #CBCBDB",
"kX c #C8C7D7",
"lX c #D5D5E5",
"zX c #DADAEA",
"xX c #E3E3F3",
"cX c #E8E8F8",
/* pixels */
"p X._./.G.P.].].U.J._.{._.~ 0 & ^ ^. X|.Z.B t M K e % & % l ~ M.T.Q.A Z W V V Z l.l.",
"^ O.O.A.A.m.V.J X.| J.oXoXE.X.x z X.( N.M.U u t i $ $ & # * d S b.T.V m W F V V Z E ",
"'.^ l K X.m.R j L L m.Q.oX|.V.F././ R F  . .N D D 0 & $ # # & a F  .m u F F F I B B ",
"O.! * i / m.R j h P m.N.N.Z.P.+.f.u.+.N { { A N.T q r s r r i G S J M y p M W T B m ",
"c l % e / G.m.N y j |  .[ } } ] r.r.} ] } @.{ B.U u z G G D R X.K j D h u n B I B V ",
"x s r x A.).m.R w 0 P @.i.d.g.g.s.s.g.g.d.y.@.M.Y J L G D J / _ x w D J p h F M i i ",
"D e e x J.).R  .D q v y.a.7XjXjXgXgXkXjXeXa.y.[ Y R x q h F S i e w N ( N D x e $ $ ",
").l % 0 ~ U. .G._.K w.e.eXlXcXxXkXkXxXcXlXrXe.9.C j 0 9 D F q & l D F R D K K l % $ ",
").O.c w L U.V.R /.1 6.rXkXlXcXcXxXkXxXcXlXkXtX8.< 9 9 9 i i % & _ ) S D g x K K x x ",
"C _.^.c K ).E.U S.1 6.rXkXlXcXxXjXxXcXcXlXkXtX8.< G S S S M i G /.S.p q % l ~ | | | ",
"B.H. X^.o.].oXP.b.< 6.8XfXlXcXxXkXjXxXcXlXfX8X8.< ( (.) F M M T J.[.H h e r e x O.{.",
"V.~ H._./.P.Q.|.E < 6.8XfXjXzXxXkXkXxXzXjXfX8X8.< F I.S.R T I A E I.) ) D.` e w v ~.",
"m.x x O.`.P.E.|.b.< 6.s.tXfXjXlXfXfXlXjXfXtXs.8.< T ( ( T ( b.E c.n.S.~ X...x w * f ",
"F.~ K ..K.).E.E.N.@ 4 q.s.7XrXeX8X8XeXrX7Xs.q.3 @ S.b.F S E n.M.L.b.S.i h P P x f f ",
"J.o.K.J.J.E.J...O.X + 7.r.r.r.r.r.r.r.r.r.r.0.+ . ^.S.F S R n.G.Y.b.T t t j U N.V.F.",
"~.x | o.F.J.'.<.,..   + 0.r.t.t.t.t.t.t.r.0.+     ,.^.S.T S T U.].M.E M u V c.Z.Y.|.",
"| D | K.J.A./.~     O , 2 3 q.q.q.q.q.q.3 2 , O     ,.^ F h h T b.N.E m.S V Y A V { ",
"`.o.F.o.P f . .       u.#XdXyX@ iXiX@ tXdX#Xi.      9 H F t a F I E Q.M.F B J B j A ",
"`.A...L x g f c ,.,.O i.@XdXyX@ pXpX@ uXdX@Xp.O ,.,.X X r h S H F m L.b.T T b.m.m.m.",
"~.H.O.X.X.#.< 1 1 > > 7 f.@X+Xf.pXpXf.+X@Xf.7 > , k 0 l G F H D h u M.( T T n._._./ ",
"/.^.^..X@.} p.p.6 2 uX<.7 p.#X$XpXpX$X#Xp.7 > &.-.a t N F F F S M I Y R T D K D.(./ ",
"_._.O.~.} 9.j.k.u.6 yX3X%.:.h.OXOXOXOXh.,.$.:.:.wX- g j N N S L F M.V F J G G A.[.{.",
"`._.L P ' 6 p.w.w.8 4.;X:X<X;X2.@.@.2.;X=X&X*X3XsXe.5 v J N F n.J N.B m F / | A.{.%X",
"R m. .R L ' < < < X X $.&X:X4X;.z.!.;.,X>X-.:.2.y.#Xe.' C B ( S.F Y E I N L R P / X.",
"C C m. .h q g G c ` a =.&X:X4X;.z.z.;.,X>X=.! 1.4 iXpXw.- B E b.R E Y A m M J T F M ",
"I.|  .J g w h x q d _ D.>.:X4X;.z.z.;.,X>X=.e * 4 j.aXw.- V Y M.E Y B m m u h F F F ",
"E N J | / G j y q p z H *.=X=X;.< < ;.=X=X=.x c - 4 3 @.{ A N.L.A B M.I B u h I I R ",
"R J M h h g u w h S h ~ >.1X0X,X-X-X,X4X:X=.z z l b - v R b.c.Y Y I M.E U M j N J | ",
"h F N J L h j P n.T h G *.2XqX6X:X:X:X:X=X=.q e l r 0 f X.U.B.E B B C N  . .L D N L ",
"p F F J ~ L R m.n.) S h *.2XqX5X&X&X&X&X&X=.s r * r s r / G.I.I. .C m m ( S.X.L a j ",
"M J M h D X.U.G.( D.H p Q ;X0X5X&X&X&X%.$.Q c s $ * s * h J ( I.].M.I B T ( ( L p N ",
"F T h h L G.[.G.D.J.) e ; :.1X,X&X&X%.$.: : r e s & & r h M B T S.T.C.I F F T R E R ",
" .J S T m.G.V.G.U.(.(.; 5.hXqX=X&X-.o &X9X>.= ` ^...^ ^ D.S.T F m b.].( S F M.).m.t ",
"b.T R B.E.N.A N.).(./.; :.wXqX5X&X.       * T m.[.Y.I.I.(._.X.w L m.J D _ m. . .J.R ",
"E a N Z.T.v.c.N.Y.).G w = O O o o 4.4.4.'.{.|.Y.T.W.C.T.n./ L P m.q M / D j P / ~ / ",
"G.g L B.T.v.A E B R / G i w f l k ! c ^ J.].|.|.T.l.Z C.T S R c.Q.V y F i % & s O.XX",
" .G X.L.Z.c.V B M R G.X.J D J / _ q 9 D T ( G.Y.b.I l.M.F p T W.W.E M N M x c c +.XX",
"P / A.I.B.R u M / P S.S. .R ( l.x.i 9 p p M E m. .R b.x.B h T Z.L.n.T E E | | ..O.3.",
"G L | J.M.J h L m.g  .m.R R b.l.l.z i S p N T G / J.N.b.F M F b.m.~ / b.M.N. .| ~ K ",
"P h h J.U.R _ F.A.i / ( N j { @.[ g z ) ( E R h L [.I.m.T M N ( / g ..R M.C.c.E R P ",
"R R L /.[.J.F.F.o.J R R z f ' q.6.k c ^ O.X.b.N.I.I.I.R L L F ( R e O.n.c.C.R.T.Y.P.",
" .| / J.[.[.A...F.m.b.b.3.<.2.8.< <.<.<.<.+.M.].).F S.D t D m.I.D.# e R b.N.C.R.W.]."
};
