/* XPM */
static char *_ea25ca73b594474d178f9d82fd9018fbnV3Yx2TRoDtocuf[] = {
/* columns rows colors chars-per-pixel */
"42 42 245 2 ",
"   c #010101",
".  c #0A0907",
"X  c #120807",
"o  c #081603",
"O  c #0D0D11",
"+  c #171617",
"@  c #260505",
"#  c #31120C",
"$  c #022A02",
"%  c #14270B",
"&  c #043402",
"*  c #0A3506",
"=  c #0C3C04",
"-  c #143C09",
";  c #1C2F14",
":  c #193312",
">  c #2C3114",
",  c #101A26",
"<  c #0E332B",
"1  c #3C2D25",
"2  c #2F2D33",
"3  c #410F0F",
"4  c #5D0D0D",
"5  c #541813",
"6  c #640604",
"7  c #610F0F",
"8  c #651415",
"9  c #751815",
"0  c #65241D",
"q  c #53312D",
"w  c #673827",
"e  c #702C30",
"r  c #6B3238",
"t  c #0E4503",
"y  c #144504",
"u  c #194606",
"i  c #134C04",
"p  c #1C4C0A",
"a  c #1B5404",
"s  c #185707",
"d  c #1D5B05",
"f  c #1D540B",
"g  c #1F4E16",
"h  c #1B5315",
"j  c #2A460D",
"k  c #225B04",
"l  c #22540C",
"z  c #235B0C",
"x  c #295D0A",
"c  c #234915",
"v  c #255B12",
"b  c #2B5C14",
"n  c #265818",
"m  c #325C1B",
"M  c #246304",
"N  c #266907",
"B  c #25630C",
"V  c #29630C",
"C  c #2C6B0D",
"Z  c #316D0E",
"A  c #2D770A",
"S  c #33730D",
"D  c #256211",
"F  c #2B6413",
"G  c #2D6B13",
"H  c #24601D",
"J  c #2B631B",
"K  c #2D6A1A",
"L  c #356815",
"P  c #326C14",
"I  c #33651B",
"U  c #346C1A",
"Y  c #396E1D",
"T  c #2E7313",
"R  c #347314",
"E  c #397915",
"W  c #35721B",
"Q  c #397618",
"!  c #3B741C",
"~  c #3B7B1C",
"^  c #1E4024",
"/  c #2E532A",
"(  c #355B25",
")  c #3C5934",
"_  c #2F6A20",
"`  c #3A6D23",
"'  c #386826",
"]  c #357323",
"[  c #3C7323",
"{  c #3D7B22",
"}  c #3D762A",
"|  c #3A7635",
" . c #4D5213",
".. c #4A661E",
"X. c #417C1C",
"o. c #555528",
"O. c #484837",
"+. c #6E542C",
"@. c #6F4730",
"#. c #456C2A",
"$. c #566F23",
"%. c #417425",
"&. c #437C23",
"*. c #43742B",
"=. c #447C2A",
"-. c #4A7D2C",
";. c #476836",
":. c #477537",
">. c #4B7E33",
",. c #52793B",
"<. c #0B3552",
"1. c #322745",
"2. c #083C68",
"3. c #373862",
"4. c #783440",
"5. c #164D4F",
"6. c #2C7048",
"7. c #0F516F",
"8. c #03497D",
"9. c #2D5270",
"0. c #196B74",
"q. c #39696F",
"w. c #4E4D4C",
"e. c #754B54",
"r. c #597A46",
"t. c #576950",
"y. c #63745B",
"u. c #646465",
"i. c #636E60",
"p. c #7C6063",
"a. c #747675",
"s. c #757A73",
"d. c #7A7A7B",
"f. c #861B1B",
"g. c #911F1F",
"h. c #B41C15",
"j. c #9D2323",
"k. c #992627",
"l. c #863638",
"z. c #A12626",
"x. c #A72828",
"c. c #AD2B2B",
"v. c #B32E2E",
"b. c #AE3738",
"n. c #BA3131",
"m. c #C53737",
"M. c #C83838",
"N. c #8B442E",
"B. c #B1583B",
"V. c #933D47",
"C. c #905B4B",
"Z. c #BC6244",
"A. c #B26852",
"S. c #905B6C",
"D. c #98736C",
"F. c #A37466",
"G. c #D37152",
"H. c #DE7161",
"J. c #3D861A",
"K. c #3E8224",
"L. c #44841D",
"P. c #448324",
"I. c #4A8824",
"U. c #44832A",
"Y. c #4B842B",
"T. c #4C8B2C",
"R. c #518A27",
"E. c #518C2C",
"W. c #469223",
"Q. c #53932D",
"!. c #58992C",
"~. c #4D8433",
"^. c #498437",
"/. c #4D8B33",
"(. c #518334",
"). c #538B33",
"_. c #578A3B",
"`. c #558C3B",
"'. c #549333",
"]. c #5A9739",
"[. c #5C933D",
"{. c #698636",
"}. c #639B3B",
"|. c #5EA136",
" X c #62A335",
".X c #5A8845",
"XX c #5B9543",
"oX c #5D9B42",
"OX c #5F994D",
"+X c #4A8654",
"@X c #6C894F",
"#X c #639946",
"$X c #669554",
"%X c #6BA54A",
"&X c #6BA354",
"*X c #75AA55",
"=X c #6F8063",
"-X c #80BA54",
";X c #AF846A",
":X c #86B46D",
">X c #EE835C",
",X c #C68665",
"<X c #F29774",
"1X c #F8A179",
"2X c #8EC173",
"3X c #044D85",
"4X c #044D88",
"5X c #05528B",
"6X c #045898",
"7X c #135B99",
"8X c #126590",
"9X c #015CA4",
"0X c #0367B6",
"qX c #106BB4",
"wX c #3177B0",
"eX c #486E94",
"rX c #016CC2",
"tX c #0471C9",
"yX c #0178D6",
"uX c #93778A",
"iX c #1889AE",
"pX c #72888C",
"aX c #5788AF",
"sX c #1394D2",
"dX c #25B8D3",
"fX c #399AE7",
"gX c #4894D0",
"hX c #4CA3E9",
"jX c #6DB8EE",
"kX c #8B8D8E",
"lX c #A3929E",
"zX c #A397B5",
"xX c #A7A7B2",
"cX c #B4B4BA",
"vX c #CA8E98",
"bX c #F2B08B",
"nX c #A7DB8E",
"mX c #F8C8AA",
"MX c #B8AEC6",
"NX c #BCBBC8",
"BX c #CBC9D8",
"VX c #CDCCE0",
"CX c #D8D8E5",
"ZX c #CDE2F2",
"AX c #E9E9EA",
/* pixels */
"&X[.).].%X%X[.`.#X*X&X>.f & g :.$X:X%XI.B a V I p = = = p I P.Q.|.I.C T T N N A J.J.",
">.(.~.).).! =.&.).*X2X#X~.J v ` -.=.E.T.P a a l * & & * * g D { Q.P.N N T C N N T ~ ",
"l ` Y.Y.! x Y Y P.}.*X-X).~.(.>...w @.{.~ V V b y * & $ $ * i D ~ R k d W C G G C G ",
"& v =.-.Y k V L &.R.R.}.,.r.@Xr.o.f.j.+.:.%.X.U i t t - = = v D L P k a V B R R C M ",
"& l %.Y.&.x a x %.=.L ( d.d.d.a.e.4 f.p.eX=X(.Q a h H J b F =.` F V B a a M R R C M ",
"= b ~.[.).! a i F =.r.a.CXBXNXMXuX4 4 lXCXcXt.! V K _ K P { ~.` l z G F a B G C V F ",
"n ` #X[.! X.a t z ;.d.CXBXe.8 e k.g.4 b.vXVXNXt.%.L l f G G J l u a P { a F v u & & ",
"y p >._.&.).`.J ) kXBXBXH.k.g.z.v.j.g.z.l.uXBXNXt.n y z W z t p l x U &.x I I p & $ ",
"y y %._.Y.=.XXF ) kXBXMXb.z.j.c.m.v.j.j.g.S.NXBXu.c t f K i & n _ P F I x I I b p p ",
"m p [ [.'.Y o.> O.kXMXS.k.j.x.n.M.m.v.z.j.V.uXNXu.n p f D i = } ^.] z l u b Y Y I I ",
"OXm %.#X#X .9 9 r uXlX7 g.z.n.M.M.M.M.c.z.9 r NXu.:.] K D d z ^.XX=.a y = l I ` =.`.",
"2X.X`.%X@X7 n.m.f.e.uX7 j.n.m.M.M.M.M.m.c.f.r zXu.$X/.K V V G P.oX`.K v v y y l >.:X",
">.&X[.R.$.4 7 7 4 7 8 7 j.j.n.M.M.M.M.c.j.f.r zXu._./.U.~ P.C S P.U.U.^.OX` p u l *.",
"p >.#X}.}.{.$.$.> # 4 4 8 g.z.x.x.x.x.j.9 7 8 r + I ~ W W P.L.P.P./.~.v } %.b u = - ",
"*.>.#X#X'.Q.I.R % X @ @ @ # 5 q 5 3 3 3 # @ @ @   ) ;.' W T.P.'.T.P.W t z L L L b m ",
".X(._.[.'.&.T.Q % # @.u.u.@.1 + O                 2 w.;.P { T.oX'.~ G i a M X.R.).[.",
"-.(.~._.#XY.E.T.: w <XcXAXbXC.> + 1 1 X     . .     : n l D /.#X'.P.R B a C L.Q.].%X",
"-.[.(.(.XXU.Z Q : w Z.+ AXmXbXF.w.bXbX1   O , + . . X . o a G { P.L.L.Y.a S E S N ~ ",
"_.-.I F ` *.o .   w Z.+ AXmXbXF.q H.h.@   O + . w.w.A.N.o t F P Q T.].P.B C Z V M S ",
"%.Y b z c ; ;X;Xq @.<XZ.<XbXbXbXG.h.5 X     , 2.7.7.4.9 o f K G B ~ '.~ P ! P.I.I.I.",
":.*.*.>.' X bX1Xw 1 F.1X1X<X<X<X<XvXlXw.2.<., 0X4X3X2 # p K K D d R T.W W W ^.#X#X&.",
".X$X.X(.*.> ,X>XB.@.C.;X,XF.D.D.D.xXxXeXqX9X2.0X4X5.< u G G F z V R ~ W ] D } XXXX[ ",
".X&X.X[ ! Y.+.B.G.G.A.w.F.9.5X6X8Xq.q.tXyXtX6X2.7.h a B C B K F ~ ~ N W U z F >.#XXX",
"a U =.~.XX#XL 5 9 N.C.cXAXaXqXsXdXdXdXsXyX7X2 . u b F L P a } W =.~ d B W [ *.#X2XnX",
"Y L ! -.~.*.a u 3 6 e xXcXCXaX5X5X6XyXyXyX7X2 ' p y z P C C XXW R ~ ~ P F &.Y Y -._.",
").~ b l F _ n J j j o.e e l.0 1.3X4X6XtXyX7X/ ] } B C C C ~ /.~ ~ ~ E C d G W Y I G ",
"Y.! f i z J f n J ] -. . . .2 1.2 2 3X9X9X5X5.J `.U.~ C N R T.~ ~ R C N d d G P G F ",
"&.! F z z z i f J ] U.U.6.6.7.2.1.3.wXwXqX6X7.f } /.T.~ N E '.X.R R E N N a B P P U ",
"P ! Y F a i a z p v ] 6.3X4X3X3X6XtXhXjXfXqX7.f f | +X^.R P.Q.~ S ~ T.R P a B U R &.",
"a k a a a a L F : ^ 6.5X5X4X3X3X8.3XrXhXjXgX7.H H 7.5X0.=.P.Z R E ~ P.R ~ B z V P &.",
"G =.} F V &./.% 0.iX6XyXyX6X3X7.] n O 9XhXfX0X8.8.3XiX0.; }.T.C M M k k )./.[ F x J ",
"C F I [ =.Y.=.% 0.sX0X6X6X5X5.| '.`.:.< 7XfXhXgXtXrXjXpX% I.[.[.P.Z N V =.~.-.K i a ",
"d z I ~.#X).=.( 5.8XtX0X4Xq.| I.)./.#X( <.2.9.9.sXjXZXkXo T K.oX].P.R C W { W F F Y ",
"a F [ `.%X)./.`.' 5.8.8.<.| ~ Q ~ [ ~.} c % % > 0.pXkXi.c C G { T.'.T.G V R { &.~ G ",
"V { T.E.Y.T.[.XXXX' o o % l V V F Y z z v b ` .X; % % / `.{ K B R Q.'.P D ! ).[.U.a ",
"~ ].].I.S P.[.oX`.>.' b ~.` ` *.} } v v I } ~.&XoX[.].XX#XXXi F { { G J *.-.&.U.).! ",
"R !.!.L.L.I.].#XY ;.s.s.s.s.s.s.s.s.s.s.s.s.s.d.d.s.$XT.] ` V I.F a G } l z I [ ` %.",
"=.Q.!.L.S ~ P ~ [ ` ' m ' #.y.d.d.d.d.d.d.d.d.d.d.d.$XK.B ! R |.L.d d P i = * c ,.:X",
"~.'.!.L.N G V Y Y.Y.Y V L W :.t.) ) r.;.,.r..Xr.,..X`.Q a D Q. XI.G B C z n c m .X:X",
"`.'.E.R d B ! Y Y.).=.! { ~ K.K i t F a V &.I.&.~ P.P.T d B Q.!.T.{ R ~ Q &.%.*.,..X",
"~.`.I.L z F -.v ! T.=.Y U.J.J.W f p z a F W Y =.Y.P.K.R z G ~ T.U.} &.T.I.P.=.%.` ' ",
"z [.Y.L ` (.~.f I P.U k W W.W.R l J ^.T ~ I i F &X[./.{ x a ! =.J b Y Q ].I.E P F b "
};
