/* XPM */
static char *_4c9ca8acaa14f45e9e77d1ab90001d2n3QcoJsF1rq7DvVB[] = {
/* columns rows colors chars-per-pixel */
"42 42 247 2 ",
"   c #020101",
".  c #08070A",
"X  c #170504",
"o  c #0A1705",
"O  c #17180C",
"+  c #0C0E12",
"@  c #061319",
"#  c #161718",
"$  c #270707",
"%  c #2A180C",
"&  c #2B1C14",
"*  c #3A1C18",
"=  c #082704",
"-  c #14290B",
";  c #053402",
":  c #0A3506",
">  c #0C3C03",
",  c #173B0A",
"<  c #142F17",
"1  c #2C3317",
"2  c #011321",
"3  c #031F35",
"4  c #361C22",
"5  c #0A2D23",
"6  c #022139",
"7  c #3B282E",
"8  c #580D0A",
"9  c #5D0D0D",
"0  c #591410",
"q  c #641010",
"w  c #7A1917",
"e  c #492906",
"r  c #4A2E10",
"t  c #542A19",
"y  c #75201A",
"u  c #491523",
"i  c #463024",
"p  c #6C3532",
"a  c #0D4403",
"s  c #144504",
"d  c #184507",
"f  c #144B04",
"g  c #1C4C0A",
"h  c #175605",
"j  c #1B5404",
"k  c #1D5B05",
"l  c #1D540C",
"z  c #1B4C15",
"x  c #1E5312",
"c  c #23470B",
"v  c #225B04",
"b  c #22550C",
"n  c #275A08",
"m  c #235B0C",
"M  c #264C17",
"N  c #255B13",
"B  c #2A5C14",
"V  c #285818",
"C  c #325C1C",
"Z  c #246304",
"A  c #276807",
"S  c #25630C",
"D  c #2A630C",
"F  c #2C6B0D",
"G  c #326A0D",
"H  c #2D770A",
"J  c #33720D",
"K  c #266212",
"L  c #2B6413",
"P  c #2D6B13",
"I  c #2C631B",
"U  c #2D6A1A",
"Y  c #356714",
"T  c #326C14",
"R  c #33651B",
"E  c #346C1A",
"W  c #396D1C",
"Q  c #2E7313",
"!  c #347314",
"~  c #377717",
"^  c #397915",
"/  c #35731C",
"(  c #3B741C",
")  c #3C7B1B",
"_  c #144529",
"`  c #334B2C",
"'  c #2D5A22",
"]  c #3C5736",
"[  c #396427",
"{  c #346B22",
"}  c #3B6D23",
"|  c #3C7323",
" . c #3A7527",
".. c #3D7A21",
"X. c #2C6435",
"o. c #417C1C",
"O. c #53503B",
"+. c #684D3B",
"@. c #695237",
"#. c #426929",
"$. c #417525",
"%. c #437C23",
"&. c #43742B",
"*. c #447C2A",
"=. c #4A7C2D",
"-. c #5D7828",
";. c #486837",
":. c #487535",
">. c #4B7D33",
",. c #547738",
"<. c #022947",
"1. c #143A48",
"2. c #00335B",
"3. c #283953",
"4. c #0B3C66",
"5. c #723A47",
"6. c #13545B",
"7. c #305844",
"8. c #10556B",
"9. c #135869",
"0. c #01467D",
"q. c #09587A",
"w. c #126E69",
"e. c #2D6E6A",
"r. c #525753",
"t. c #71525A",
"y. c #506C42",
"u. c #646564",
"i. c #636862",
"p. c #777C76",
"a. c gray48",
"s. c #851D1B",
"d. c #911F1F",
"f. c #A40C0A",
"g. c #962121",
"h. c #9C2323",
"j. c #992628",
"k. c #99362E",
"l. c #A62929",
"z. c #B52F2F",
"x. c #A6362F",
"c. c #BB3232",
"v. c #C43636",
"b. c #C83838",
"n. c #8E452D",
"m. c #994B34",
"M. c #915C4B",
"N. c #BE6344",
"B. c #AE7054",
"V. c #915C6E",
"C. c #8F6C71",
"Z. c #A67C66",
"A. c #D0564A",
"S. c #CB664A",
"D. c #E67350",
"F. c #3D851B",
"G. c #1D883D",
"H. c #3E8224",
"J. c #23953B",
"K. c #44841D",
"L. c #448424",
"P. c #498525",
"I. c #4C8B24",
"U. c #45822A",
"Y. c #4A842B",
"T. c #4C8B2C",
"R. c #518A2B",
"E. c #489224",
"W. c #53932E",
"Q. c #58992C",
"!. c #4D8433",
"~. c #4B8637",
"^. c #4E8B33",
"/. c #538B33",
"(. c #568939",
"). c #558C3A",
"_. c #559333",
"`. c #599434",
"'. c #589837",
"]. c #5C933D",
"[. c #5C9A3D",
"{. c #639D3A",
"}. c #5EA136",
"|. c #64A337",
" X c #1C8548",
".X c #2BA747",
"XX c #4B8A40",
"oX c #5A8845",
"OX c #5B9443",
"+X c #5B9844",
"@X c #618F4B",
"#X c #639847",
"$X c #679652",
"%X c #6CA549",
"&X c #78B24E",
"*X c #6BA354",
"=X c #73A45A",
"-X c #75876D",
";X c #82BC55",
":X c #86B46D",
">X c #D89070",
",X c #F4916B",
"<X c #F3A47D",
"1X c #8EC173",
"2X c #024B85",
"3X c #074E86",
"4X c #0C5592",
"5X c #055898",
"6X c #177288",
"7X c #306B98",
"8X c #025EA7",
"9X c #0465AD",
"0X c #0165B5",
"qX c #026CBD",
"wX c #5D789E",
"eX c #686F8D",
"rX c #0574CC",
"tX c #AC7E87",
"yX c #768588",
"uX c #2E90DC",
"iX c #1CA5D0",
"pX c #2E93E4",
"aX c #428CC6",
"sX c #4199E0",
"dX c #5BACEC",
"fX c #69B4F0",
"gX c #86868D",
"hX c #8D8F93",
"jX c #929394",
"kX c #9B8EB0",
"lX c #A896AE",
"zX c #B7AAB9",
"xX c #C1828B",
"cX c #E6A984",
"vX c #F8AA82",
"bX c #F8B691",
"nX c #A7DB8E",
"mX c #F8C7A9",
"MX c #B8B7C8",
"NX c #B8B3D1",
"BX c #CABFCE",
"VX c #9EDBE7",
"CX c #CAC9D9",
"ZX c #D0C8D6",
"AX c #E5DBD8",
"SX c #D8D8E7",
"DX c #E7E7EC",
/* pixels */
"*X]./.].%X%X].(.#X=X=X>.l ; M :.$X:X%XI.S j D I g > > > g R L.W.}.I.F Q Q A A H F.F.",
">.(.!././.( *.%./.&X1X#X!.I N { -.m.n.-.T j j l : ; ; : : z K ..W.L.A A Q F A A Q ) ",
"b } Y.Y.( n W W P.{.&X;X/.!.;.;.@.g.w @.;.;.] ] s : ; = = : f K ) ! v k / F P P F P ",
"; N *.=.W v D Y %.R.R.{.`.oX-XjXC.w 9 u.gXgXhXhX] z s , > > N K Y T v h S S ! ! F Z ",
"; b $.Y.%.n j m $.%.T F #X-XMXZXtX9 q C.lXlXzXSXgX] ' I B L *.} L D S j h Z ! ! F Z ",
"> B !.]./.( j f L *.R.$.u.CXCXxXl.q g.h.w q p BXDXgXy.E T ..~.} b m P L h S P F S L ",
"V } #X{.( o.j a m *.oXu.CXCXC.y h.g.h.c.l.g.l.A.ZXSXjX;.P P I b d j T ..j L N d ; ; ",
"s g >.).%./.).I L $.,.u.CXNXV.g.h.h.c.b.z.h.h.x.zXCXhXy./ m a g b m T %.n R R g ; ; ",
"s s $.).Y.*.+XI m G #.u.MXC.k.h.l.z.v.b.c.l.h.j.t.zXgXO.r 1 ; V { T L E n R R B g g ",
"' g | ].`.( ).I D G [ u.MXp s.l.z.b.b.b.b.c.l.g.9 kXC.p s.s.% [ ~.| m b d B W W R R ",
"oXC $.#X%Xo.Y.%.%.o.#.u.lXp s.l.v.b.b.b.b.v.z.g.9 V.5.w z.l.q ,.OX*.j s > b R } *.(.",
"1XoX(.%X;X|.L.Y.P.o.#.r.kXp w g.l.v.v.v.v.z.g.d.9 9 8 8 0 0 0 #.+X).U N N s s b >.:X",
">.=X].R.{.&Xo.) %.T s . 0 9 9 w h.l.l.l.l.h.d.q 9 9 $ - o.%.G J L.U.U.~.+X{ g s b &.",
"b >.#X{.|.&XP.U.,.r.`   X X X X $ $ $ * 4 * $ X X X   - / L.K.P.P.^.!.N  .$.B d > , ",
"&.>.#X#X`.W.P.! [ ` #                 . + i M.jXjXM.* - / Y.L._.T.L./ a m Y Y Y B C ",
"oX!.(.].`.%.T.g , =     + + .   O +.+.& i B.bXDXjX>Xp - I V M )._.) P f j Z o.R./.].",
"=.(.!.).#XY.&.% O # # # # # + . * >XvXO.Z.bXmXDX# N.p = , % * ;.!.L.! S j F K.W.`.%X",
"=.].!.!.OX} O 8 @.y.r.r.+ . # + $ f.D.p Z.bXmXAX& N.p   % m.D.* M K.K.Y.h J ^ J A ) ",
").=.E I M O >XcXm.9 u 3X0.0.3   . 4 f.A.<XbXvX,XD.<X+.* n.m.m.% c T.[.L.S F J A Z J ",
"$.W B N z O cX,XD.x.u 2X2X2X5X2.  + * S.,X,X,XvXvX+.u.C.m.n.% c m ) _.) T ( L.P.P.P.",
":.&.&.>.[ . m.k.k.s.u 2X3X2X0X5X<.<.+ t m.N.N.B.+.1.eXC.w y , b k ! T./ / / ~.#X#X%.",
"oX$XoX!.&., e e e e i 6.e.3X0X0X3X5X<.5 1 t t t   6 r.+.e e B m S ! ) / { K  .OX+X| ",
"XX=XoX| ( P.T j l V C R :.8.8X0X8XqXq. X_ @ o o o o % r F S U L ) ) A / E m I >.#X+X",
"j E *.!.OX#XY s > s c v Y 8.3X8XqXq.G..Xw.6.U x g B L T T h ../ %.) k Z / | &.@X1XnX",
"W Y ( =.~.&.j s g B W G Z 8.0X0Xq.G..XJ.w.6.{ { g s m T F F +X( ! ) ) T L %.( W =.).",
"/.) B b I { V I l N *.W.I.7.3.3.3.r t r 7 ` I  . .D F F F ) ^.) ) ) ^ F k P / W E P ",
"Y.( l f m I x V I  .T.W.E.1 4.4X7XeXeXeXwX7X6X6XOXU.) F A ! T.o.) ! F A k k P T P L ",
"%.( L m m m f l M M ' L.F.= 0.rXrXaXaXsXdXdXpXuXe.XXR b A ^ _.o.! ! ^ A A j S T T T ",
"T ( W L j f j d 5 2 o V N 5 2X0X5X8.9.9XuXdXfXfX4X7.] ` m P.W.) J ) T.! T j S T ! %.",
"j v j j j j Y o 0.0.  . . 4.2X<.- / U.9.9XuXfXdX4X6 jXjX- P.J ! ^ ) L.! ) S m D T %.",
"P *. .L S %.^.- 0.0.2 0.0.2X6 < / L P g 6.9XrX4XrXiXVXjX- {.T.F Z Z v v /.^.| L m I ",
"F L E | *.T.*.O 0.rX2X2 2 2 < W `.).~. .X.9.8XrXiXVXyX` R P.[.[.L.J A D *.!.=.I f j ",
"k m R ~.#X/.*.' 1.2.1.C C C ( P._.^.#X~.[ _ <.2.6.u.` d D Q H.+X'.P.! F / ../ L L / ",
"h L | ).%X/.~.).[ 1 M `.`.T.) ~ ) | !. .C d - 1 < - , B T F P ..T._.T.P S T ..%.) T ",
"D ..T./.Y.T.].OX$XoX,.@X$X:.} [ [ :.[ [ [ C } OX:.} } !.)...U S ! W.`./ K / /.].U.k ",
") `.[.I.J P.[.+X-Xa.a.a.a.a.a.a.a.a.a.a.a.i.~.*XOX).).OX#XOXf L ....P I &.=.%.U./.( ",
"! '.Q.K.K.I.[.#X-Xa.a.a.a.a.a.a.a.a.a.a.a.p.p.p.p.p.$XY.{ } D P.L j P  .b m E | } $.",
"*.W.Q.K.J ) T ) :.:.[ C [ #.#.[ ' ' #.oX$X=X=XOX*. .T.H.S ( ! |.K.k k T f > : M ,.:X",
"Y._.Q.F.A P S W Y.Y.W L Y / | K a s W ( L.].[.L.! F.E.~ k K W.|.I.P S F m B M C oX:X",
").`.R.! k S ( W Y./.*.( ..) H.U f a L j D %.P.%.( L.L.Q k S W.'.T...! ) ~ %.$.&.,.oX",
"!.`.P.Y m L =.B ( T.*.W U.F.F./ l g m h L / W *.Y.L.H.! m P ) Y.U. .%.T.I.L.*.$.} [ ",
"m ].Y.Y } ~.!.l E L.T v / E.E.! N I ~.! ) U f L *X+X^...m j ( %.I B W ^ [.P.^ T L B "
};
